<svg xmlns="http://www.w3.org/2000/svg" width="900" height="670" viewBox="0 0 900 670" role="img" aria-labelledby="title desc">
<title id="title">Från kundorder till verifierad effekt</title><desc id="desc">Figur 1. Egen konceptmodell. Ett plock passerar flera ansvar; kundstatus ändras först efter observerad effekt och hanterad kvittens. Pilarna visar informations- och exekveringsflöde, inte verkliga SICS-gränssnitt.</desc>
<defs><marker id="arrow" viewBox="0 0 10 10" refX="9" refY="5" markerWidth="7" markerHeight="7" orient="auto-start-reverse"><path d="M 0 0 L 10 5 L 0 10 z" fill="#526473"/></marker><marker id="red" viewBox="0 0 10 10" refX="9" refY="5" markerWidth="7" markerHeight="7" orient="auto"><path d="M 0 0 L 10 5 L 0 10 z" fill="#a34838"/></marker></defs>
<rect width="100%" height="100%" fill="white"/>
<g font-family="DejaVu Sans, Arial, sans-serif">
<text x="28" y="34" font-size="23" text-anchor="start" fill="#182f43" font-weight="700">Från kundorder till verifierad effekt</text>
<text x="28" y="62" font-size="16" text-anchor="start" fill="#526473" font-weight="400">Typed workflow - one cell - deterministic local Brain</text>
<path d="M 390 136 L 510 136" fill="none" stroke="#526473" stroke-width="2" marker-end="url(#arrow)"/>
<path d="M 685 182 V 230" fill="none" stroke="#526473" stroke-width="2" marker-end="url(#arrow)"/>
<path d="M 510 276 L 390 276" fill="none" stroke="#526473" stroke-width="2" marker-end="url(#arrow)"/>
<path d="M 215 322 V 370" fill="none" stroke="#526473" stroke-width="2" marker-end="url(#arrow)"/>
<path d="M 390 416 L 510 416" fill="none" stroke="#526473" stroke-width="2" marker-end="url(#arrow)"/>
<path d="M 685 462 V 510" fill="none" stroke="#526473" stroke-width="2" marker-end="url(#arrow)"/>
<path d="M 510 556 L 390 556" fill="none" stroke="#526473" stroke-width="2" marker-end="url(#arrow)"/>
<rect x="40" y="90" width="350" height="92" rx="7" fill="#eef2f6" stroke="#182f43" stroke-width="1.3"/>
<rect x="40" y="100" width="4" height="72" rx="2" fill="#182f43"/>
<text x="215" y="130" font-size="19" text-anchor="middle" fill="#182f43" font-weight="700">Kundens ERP / WMS</text>
<text x="215" y="156" font-size="16" text-anchor="middle" fill="#526473" font-weight="400">Order • SKU • destination</text>
<rect x="510" y="90" width="350" height="92" rx="7" fill="#edf6f5" stroke="#126b70" stroke-width="1.3"/>
<rect x="510" y="100" width="4" height="72" rx="2" fill="#126b70"/>
<text x="685" y="130" font-size="19" text-anchor="middle" fill="#182f43" font-weight="700">Integrationslager</text>
<text x="685" y="156" font-size="16" text-anchor="middle" fill="#526473" font-weight="400">Validera • lagra • samordna</text>
<rect x="510" y="230" width="350" height="92" rx="7" fill="#edf6f5" stroke="#126b70" stroke-width="1.3"/>
<rect x="510" y="240" width="4" height="72" rx="2" fill="#126b70"/>
<text x="685" y="270" font-size="19" text-anchor="middle" fill="#182f43" font-weight="700">Plan och validering</text>
<text x="685" y="296" font-size="16" text-anchor="middle" fill="#526473" font-weight="400">Observation → tillåtet förslag</text>
<rect x="40" y="230" width="350" height="92" rx="7" fill="#edf6f5" stroke="#126b70" stroke-width="1.3"/>
<rect x="40" y="240" width="4" height="72" rx="2" fill="#126b70"/>
<text x="215" y="270" font-size="19" text-anchor="middle" fill="#182f43" font-weight="700">Cell + RobotGateway</text>
<text x="215" y="296" font-size="16" text-anchor="middle" fill="#526473" font-weight="400">Kontrollera läge • exekvera</text>
<rect x="40" y="370" width="350" height="92" rx="7" fill="#f2f0f8" stroke="#63577a" stroke-width="1.3"/>
<rect x="40" y="380" width="4" height="72" rx="2" fill="#63577a"/>
<text x="215" y="410" font-size="19" text-anchor="middle" fill="#182f43" font-weight="700">Blender-världen</text>
<text x="215" y="436" font-size="16" text-anchor="middle" fill="#526473" font-weight="400">Objektet flyttas i simulatorn</text>
<rect x="510" y="370" width="350" height="92" rx="7" fill="#edf6f5" stroke="#126b70" stroke-width="1.3"/>
<rect x="510" y="380" width="4" height="72" rx="2" fill="#126b70"/>
<text x="685" y="410" font-size="19" text-anchor="middle" fill="#182f43" font-weight="700">Observation + verifiering</text>
<text x="685" y="436" font-size="16" text-anchor="middle" fill="#526473" font-weight="400">Lyckat • misslyckat • oavgjort</text>
<rect x="510" y="510" width="350" height="92" rx="7" fill="#eef2f6" stroke="#182f43" stroke-width="1.3"/>
<rect x="510" y="520" width="4" height="72" rx="2" fill="#182f43"/>
<text x="685" y="550" font-size="19" text-anchor="middle" fill="#182f43" font-weight="700">Kundkvittens</text>
<text x="685" y="576" font-size="16" text-anchor="middle" fill="#526473" font-weight="400">Rapportera verifierad orderrad</text>
<rect x="40" y="510" width="350" height="92" rx="7" fill="#eef2f6" stroke="#182f43" stroke-width="1.3"/>
<rect x="40" y="520" width="4" height="72" rx="2" fill="#182f43"/>
<text x="215" y="550" font-size="19" text-anchor="middle" fill="#182f43" font-weight="700">Spårbart slutresultat</text>
<text x="215" y="576" font-size="16" text-anchor="middle" fill="#526473" font-weight="400">Order • evidens • händelselogg</text>
</g></svg>