<svg xmlns="http://www.w3.org/2000/svg" width="900" height="690" viewBox="0 0 900 690" role="img" aria-labelledby="title desc">
<title id="title">Synthetic product-tool compatibility</title><desc id="desc">Figure 11. SIMULATOR_DESIGN compatibility matrix generated from robotops/robotics/catalogue-v1.json. P/C eligibility remains subject to actual fixture mass, geometry and tool availability. These are not manufacturer gripper specifications. The selected tool and candidate rejection reasons must be persisted separately as execution evidence.</desc>
<defs><marker id="arrow" viewBox="0 0 10 10" refX="9" refY="5" markerWidth="7" markerHeight="7" orient="auto-start-reverse"><path d="M 0 0 L 10 5 L 0 10 z" fill="#526473"/></marker><marker id="red" viewBox="0 0 10 10" refX="9" refY="5" markerWidth="7" markerHeight="7" orient="auto"><path d="M 0 0 L 10 5 L 0 10 z" fill="#a34838"/></marker></defs>
<rect width="100%" height="100%" fill="white"/>
<g font-family="DejaVu Sans, Arial, sans-serif">
<text x="28" y="34" font-size="23" text-anchor="start" fill="#182f43" font-weight="700">Synthetic product-tool compatibility</text>
<text x="28" y="62" font-size="16" text-anchor="start" fill="#526473" font-weight="400">Generated from the same versioned catalogue used by runtime selection</text>
<rect x="38" y="106" width="222" height="69" fill="#edf6f5" stroke="#c3d0d8"/>
<text x="149" y="141" font-size="13" text-anchor="middle" fill="#182f43" font-weight="700">Product</text>
<rect x="260" y="106" width="100" height="69" fill="#edf6f5" stroke="#c3d0d8"/>
<text x="310" y="141" font-size="13" text-anchor="middle" fill="#182f43" font-weight="700">VAC SINGLE</text>
<rect x="360" y="106" width="100" height="69" fill="#edf6f5" stroke="#c3d0d8"/>
<text x="410" y="141" font-size="13" text-anchor="middle" fill="#182f43" font-weight="700">VAC ARRAY</text>
<rect x="460" y="106" width="100" height="69" fill="#edf6f5" stroke="#c3d0d8"/>
<text x="510" y="132" font-size="13" text-anchor="middle" fill="#182f43" font-weight="700">PINCH</text>
<text x="510" y="150" font-size="13" text-anchor="middle" fill="#182f43" font-weight="700">NARROW</text>
<rect x="560" y="106" width="100" height="69" fill="#edf6f5" stroke="#c3d0d8"/>
<text x="610" y="141" font-size="13" text-anchor="middle" fill="#182f43" font-weight="700">PINCH WIDE</text>
<rect x="660" y="106" width="100" height="69" fill="#edf6f5" stroke="#c3d0d8"/>
<text x="710" y="132" font-size="13" text-anchor="middle" fill="#182f43" font-weight="700">ADAPTIVE</text>
<text x="710" y="150" font-size="13" text-anchor="middle" fill="#182f43" font-weight="700">SOFT</text>
<rect x="760" y="106" width="100" height="69" fill="#edf6f5" stroke="#c3d0d8"/>
<text x="810" y="132" font-size="13" text-anchor="middle" fill="#182f43" font-weight="700">SUPPORT</text>
<text x="810" y="150" font-size="13" text-anchor="middle" fill="#182f43" font-weight="700">FORK</text>
<rect x="38" y="175" width="222" height="69" fill="#f5f7f9" stroke="#c3d0d8"/>
<text x="149" y="210" font-size="13" text-anchor="middle" fill="#182f43" font-weight="400">SKU-A / small carton</text>
<rect x="260" y="175" width="100" height="69" fill="#edf6f5" stroke="#c3d0d8"/>
<text x="310" y="210" font-size="19" text-anchor="middle" fill="#182f43" font-weight="700">P</text>
<rect x="360" y="175" width="100" height="69" fill="#f5f7f9" stroke="#c3d0d8"/>
<text x="410" y="210" font-size="19" text-anchor="middle" fill="#182f43" font-weight="400">C</text>
<rect x="460" y="175" width="100" height="69" fill="#f5f7f9" stroke="#c3d0d8"/>
<text x="510" y="210" font-size="19" text-anchor="middle" fill="#182f43" font-weight="400">C</text>
<rect x="560" y="175" width="100" height="69" fill="#f5f7f9" stroke="#c3d0d8"/>
<text x="610" y="210" font-size="19" text-anchor="middle" fill="#182f43" font-weight="400">C</text>
<rect x="660" y="175" width="100" height="69" fill="#f5f7f9" stroke="#c3d0d8"/>
<text x="710" y="210" font-size="19" text-anchor="middle" fill="#182f43" font-weight="400">C</text>
<rect x="760" y="175" width="100" height="69" fill="#f5f7f9" stroke="#c3d0d8"/>
<text x="810" y="210" font-size="19" text-anchor="middle" fill="#182f43" font-weight="400">C</text>
<rect x="38" y="244" width="222" height="69" fill="#f5f7f9" stroke="#c3d0d8"/>
<text x="149" y="279" font-size="13" text-anchor="middle" fill="#182f43" font-weight="400">SKU-B / medium carton</text>
<rect x="260" y="244" width="100" height="69" fill="#f5f7f9" stroke="#c3d0d8"/>
<text x="310" y="279" font-size="19" text-anchor="middle" fill="#182f43" font-weight="400">C</text>
<rect x="360" y="244" width="100" height="69" fill="#edf6f5" stroke="#c3d0d8"/>
<text x="410" y="279" font-size="19" text-anchor="middle" fill="#182f43" font-weight="700">P</text>
<rect x="460" y="244" width="100" height="69" fill="#fbf4e6" stroke="#c3d0d8"/>
<text x="510" y="279" font-size="19" text-anchor="middle" fill="#182f43" font-weight="400">N</text>
<rect x="560" y="244" width="100" height="69" fill="#f5f7f9" stroke="#c3d0d8"/>
<text x="610" y="279" font-size="19" text-anchor="middle" fill="#182f43" font-weight="400">C</text>
<rect x="660" y="244" width="100" height="69" fill="#f5f7f9" stroke="#c3d0d8"/>
<text x="710" y="279" font-size="19" text-anchor="middle" fill="#182f43" font-weight="400">C</text>
<rect x="760" y="244" width="100" height="69" fill="#f5f7f9" stroke="#c3d0d8"/>
<text x="810" y="279" font-size="19" text-anchor="middle" fill="#182f43" font-weight="400">C</text>
<rect x="38" y="313" width="222" height="69" fill="#f5f7f9" stroke="#c3d0d8"/>
<text x="149" y="348" font-size="13" text-anchor="middle" fill="#182f43" font-weight="400">SKU-C / soft pouch</text>
<rect x="260" y="313" width="100" height="69" fill="#f5f7f9" stroke="#c3d0d8"/>
<text x="310" y="348" font-size="19" text-anchor="middle" fill="#182f43" font-weight="400">C</text>
<rect x="360" y="313" width="100" height="69" fill="#fbf4e6" stroke="#c3d0d8"/>
<text x="410" y="348" font-size="19" text-anchor="middle" fill="#182f43" font-weight="400">N</text>
<rect x="460" y="313" width="100" height="69" fill="#f5f7f9" stroke="#c3d0d8"/>
<text x="510" y="348" font-size="19" text-anchor="middle" fill="#182f43" font-weight="400">C</text>
<rect x="560" y="313" width="100" height="69" fill="#fbf4e6" stroke="#c3d0d8"/>
<text x="610" y="348" font-size="19" text-anchor="middle" fill="#182f43" font-weight="400">N</text>
<rect x="660" y="313" width="100" height="69" fill="#edf6f5" stroke="#c3d0d8"/>
<text x="710" y="348" font-size="19" text-anchor="middle" fill="#182f43" font-weight="700">P</text>
<rect x="760" y="313" width="100" height="69" fill="#f5f7f9" stroke="#c3d0d8"/>
<text x="810" y="348" font-size="19" text-anchor="middle" fill="#182f43" font-weight="400">C</text>
<rect x="38" y="382" width="222" height="69" fill="#f5f7f9" stroke="#c3d0d8"/>
<text x="149" y="417" font-size="13" text-anchor="middle" fill="#182f43" font-weight="400">SKU-D / bottle</text>
<rect x="260" y="382" width="100" height="69" fill="#fbf4e6" stroke="#c3d0d8"/>
<text x="310" y="417" font-size="19" text-anchor="middle" fill="#182f43" font-weight="400">N</text>
<rect x="360" y="382" width="100" height="69" fill="#fbf4e6" stroke="#c3d0d8"/>
<text x="410" y="417" font-size="19" text-anchor="middle" fill="#182f43" font-weight="400">N</text>
<rect x="460" y="382" width="100" height="69" fill="#edf6f5" stroke="#c3d0d8"/>
<text x="510" y="417" font-size="19" text-anchor="middle" fill="#182f43" font-weight="700">P</text>
<rect x="560" y="382" width="100" height="69" fill="#f5f7f9" stroke="#c3d0d8"/>
<text x="610" y="417" font-size="19" text-anchor="middle" fill="#182f43" font-weight="400">C</text>
<rect x="660" y="382" width="100" height="69" fill="#f5f7f9" stroke="#c3d0d8"/>
<text x="710" y="417" font-size="19" text-anchor="middle" fill="#182f43" font-weight="400">C</text>
<rect x="760" y="382" width="100" height="69" fill="#fbf4e6" stroke="#c3d0d8"/>
<text x="810" y="417" font-size="19" text-anchor="middle" fill="#182f43" font-weight="400">N</text>
<rect x="38" y="451" width="222" height="69" fill="#f5f7f9" stroke="#c3d0d8"/>
<text x="149" y="486" font-size="13" text-anchor="middle" fill="#182f43" font-weight="400">SKU-E / can jar</text>
<rect x="260" y="451" width="100" height="69" fill="#f5f7f9" stroke="#c3d0d8"/>
<text x="310" y="486" font-size="19" text-anchor="middle" fill="#182f43" font-weight="400">C</text>
<rect x="360" y="451" width="100" height="69" fill="#f5f7f9" stroke="#c3d0d8"/>
<text x="410" y="486" font-size="19" text-anchor="middle" fill="#182f43" font-weight="400">C</text>
<rect x="460" y="451" width="100" height="69" fill="#f5f7f9" stroke="#c3d0d8"/>
<text x="510" y="486" font-size="19" text-anchor="middle" fill="#182f43" font-weight="400">C</text>
<rect x="560" y="451" width="100" height="69" fill="#edf6f5" stroke="#c3d0d8"/>
<text x="610" y="486" font-size="19" text-anchor="middle" fill="#182f43" font-weight="700">P</text>
<rect x="660" y="451" width="100" height="69" fill="#f5f7f9" stroke="#c3d0d8"/>
<text x="710" y="486" font-size="19" text-anchor="middle" fill="#182f43" font-weight="400">C</text>
<rect x="760" y="451" width="100" height="69" fill="#fbf4e6" stroke="#c3d0d8"/>
<text x="810" y="486" font-size="19" text-anchor="middle" fill="#182f43" font-weight="400">N</text>
<rect x="38" y="520" width="222" height="69" fill="#f5f7f9" stroke="#c3d0d8"/>
<text x="149" y="555" font-size="13" text-anchor="middle" fill="#182f43" font-weight="400">SKU-F / long carton</text>
<rect x="260" y="520" width="100" height="69" fill="#fbf4e6" stroke="#c3d0d8"/>
<text x="310" y="555" font-size="19" text-anchor="middle" fill="#182f43" font-weight="400">N</text>
<rect x="360" y="520" width="100" height="69" fill="#f5f7f9" stroke="#c3d0d8"/>
<text x="410" y="555" font-size="19" text-anchor="middle" fill="#182f43" font-weight="400">C</text>
<rect x="460" y="520" width="100" height="69" fill="#fbf4e6" stroke="#c3d0d8"/>
<text x="510" y="555" font-size="19" text-anchor="middle" fill="#182f43" font-weight="400">N</text>
<rect x="560" y="520" width="100" height="69" fill="#f5f7f9" stroke="#c3d0d8"/>
<text x="610" y="555" font-size="19" text-anchor="middle" fill="#182f43" font-weight="400">C</text>
<rect x="660" y="520" width="100" height="69" fill="#fbf4e6" stroke="#c3d0d8"/>
<text x="710" y="555" font-size="19" text-anchor="middle" fill="#182f43" font-weight="400">N</text>
<rect x="760" y="520" width="100" height="69" fill="#edf6f5" stroke="#c3d0d8"/>
<text x="810" y="555" font-size="19" text-anchor="middle" fill="#182f43" font-weight="700">P</text>
<text x="38" y="629" font-size="16" text-anchor="start" fill="#182f43" font-weight="400">P: preferred   C: candidate-compatible   N: disallowed</text>
<text x="38" y="656" font-size="15" text-anchor="start" fill="#526473" font-weight="400">Mass, geometry and availability checks still apply. SIMULATOR_DESIGN.</text>
</g></svg>